<svg id="visual" viewBox="0 0 900 600" width="900" height="600" xmlns="http://www.w3.org/2000/svg" xmlns:xlink="http://www.w3.org/1999/xlink" version="1.1"><rect x="0" y="0" width="900" height="600" fill="#dd3f31"></rect><path d="M0 166L21.5 175.2C43 184.3 86 202.7 128.8 208C171.7 213.3 214.3 205.7 257.2 202C300 198.3 343 198.7 385.8 202.2C428.7 205.7 471.3 212.3 514.2 212.5C557 212.7 600 206.3 642.8 210.7C685.7 215 728.3 230 771.2 233C814 236 857 227 878.5 222.5L900 218L900 0L878.5 0C857 0 814 0 771.2 0C728.3 0 685.7 0 642.8 0C600 0 557 0 514.2 0C471.3 0 428.7 0 385.8 0C343 0 300 0 257.2 0C214.3 0 171.7 0 128.8 0C86 0 43 0 21.5 0L0 0Z" fill="#fa7268"></path><path d="M0 142L21.5 150.3C43 158.7 86 175.3 128.8 175.5C171.7 175.7 214.3 159.3 257.2 159.3C300 159.3 343 175.7 385.8 181.3C428.7 187 471.3 182 514.2 184.2C557 186.3 600 195.7 642.8 199.2C685.7 202.7 728.3 200.3 771.2 187.8C814 175.3 857 152.7 878.5 141.3L900 130L900 0L878.5 0C857 0 814 0 771.2 0C728.3 0 685.7 0 642.8 0C600 0 557 0 514.2 0C471.3 0 428.7 0 385.8 0C343 0 300 0 257.2 0C214.3 0 171.7 0 128.8 0C86 0 43 0 21.5 0L0 0Z" fill="#ef5f67"></path><path d="M0 135L21.5 127.7C43 120.3 86 105.7 128.8 97.8C171.7 90 214.3 89 257.2 94.3C300 99.7 343 111.3 385.8 119.5C428.7 127.7 471.3 132.3 514.2 136C557 139.7 600 142.3 642.8 136.3C685.7 130.3 728.3 115.7 771.2 114.3C814 113 857 125 878.5 131L900 137L900 0L878.5 0C857 0 814 0 771.2 0C728.3 0 685.7 0 642.8 0C600 0 557 0 514.2 0C471.3 0 428.7 0 385.8 0C343 0 300 0 257.2 0C214.3 0 171.7 0 128.8 0C86 0 43 0 21.5 0L0 0Z" fill="#e34c67"></path><path d="M0 105L21.5 102.5C43 100 86 95 128.8 90.7C171.7 86.3 214.3 82.7 257.2 87C300 91.3 343 103.7 385.8 103.8C428.7 104 471.3 92 514.2 82C557 72 600 64 642.8 68.8C685.7 73.7 728.3 91.3 771.2 100C814 108.7 857 108.3 878.5 108.2L900 108L900 0L878.5 0C857 0 814 0 771.2 0C728.3 0 685.7 0 642.8 0C600 0 557 0 514.2 0C471.3 0 428.7 0 385.8 0C343 0 300 0 257.2 0C214.3 0 171.7 0 128.8 0C86 0 43 0 21.5 0L0 0Z" fill="#d53867"></path><path d="M0 46L21.5 44.3C43 42.7 86 39.3 128.8 39.7C171.7 40 214.3 44 257.2 49.3C300 54.7 343 61.3 385.8 61.3C428.7 61.3 471.3 54.7 514.2 49.7C557 44.7 600 41.3 642.8 38C685.7 34.7 728.3 31.3 771.2 29.7C814 28 857 28 878.5 28L900 28L900 0L878.5 0C857 0 814 0 771.2 0C728.3 0 685.7 0 642.8 0C600 0 557 0 514.2 0C471.3 0 428.7 0 385.8 0C343 0 300 0 257.2 0C214.3 0 171.7 0 128.8 0C86 0 43 0 21.5 0L0 0Z" fill="#c62368"></path></svg>