<svg id="visual" viewBox="0 0 900 600" width="900" height="600" xmlns="http://www.w3.org/2000/svg" xmlns:xlink="http://www.w3.org/1999/xlink" version="1.1"><rect x="0" y="0" width="900" height="600" fill="#dd3f31"></rect><path d="M0 432L21.5 422.8C43 413.7 86 395.3 128.8 390C171.7 384.7 214.3 392.3 257.2 396C300 399.7 343 399.3 385.8 395.8C428.7 392.3 471.3 385.7 514.2 385.5C557 385.3 600 391.7 642.8 387.3C685.7 383 728.3 368 771.2 365C814 362 857 371 878.5 375.5L900 380L900 601L878.5 601C857 601 814 601 771.2 601C728.3 601 685.7 601 642.8 601C600 601 557 601 514.2 601C471.3 601 428.7 601 385.8 601C343 601 300 601 257.2 601C214.3 601 171.7 601 128.8 601C86 601 43 601 21.5 601L0 601Z" fill="#fa7268"></path><path d="M0 456L21.5 447.7C43 439.3 86 422.7 128.8 422.5C171.7 422.3 214.3 438.7 257.2 438.7C300 438.7 343 422.3 385.8 416.7C428.7 411 471.3 416 514.2 413.8C557 411.7 600 402.3 642.8 398.8C685.7 395.3 728.3 397.7 771.2 410.2C814 422.7 857 445.3 878.5 456.7L900 468L900 601L878.5 601C857 601 814 601 771.2 601C728.3 601 685.7 601 642.8 601C600 601 557 601 514.2 601C471.3 601 428.7 601 385.8 601C343 601 300 601 257.2 601C214.3 601 171.7 601 128.8 601C86 601 43 601 21.5 601L0 601Z" fill="#ef5f67"></path><path d="M0 463L21.5 470.3C43 477.7 86 492.3 128.8 500.2C171.7 508 214.3 509 257.2 503.7C300 498.3 343 486.7 385.8 478.5C428.7 470.3 471.3 465.7 514.2 462C557 458.3 600 455.7 642.8 461.7C685.7 467.7 728.3 482.3 771.2 483.7C814 485 857 473 878.5 467L900 461L900 601L878.5 601C857 601 814 601 771.2 601C728.3 601 685.7 601 642.8 601C600 601 557 601 514.2 601C471.3 601 428.7 601 385.8 601C343 601 300 601 257.2 601C214.3 601 171.7 601 128.8 601C86 601 43 601 21.5 601L0 601Z" fill="#e34c67"></path><path d="M0 493L21.5 495.5C43 498 86 503 128.8 507.3C171.7 511.7 214.3 515.3 257.2 511C300 506.7 343 494.3 385.8 494.2C428.7 494 471.3 506 514.2 516C557 526 600 534 642.8 529.2C685.7 524.3 728.3 506.7 771.2 498C814 489.3 857 489.7 878.5 489.8L900 490L900 601L878.5 601C857 601 814 601 771.2 601C728.3 601 685.7 601 642.8 601C600 601 557 601 514.2 601C471.3 601 428.7 601 385.8 601C343 601 300 601 257.2 601C214.3 601 171.7 601 128.8 601C86 601 43 601 21.5 601L0 601Z" fill="#d53867"></path><path d="M0 552L21.5 553.7C43 555.3 86 558.7 128.8 558.3C171.7 558 214.3 554 257.2 548.7C300 543.3 343 536.7 385.8 536.7C428.7 536.7 471.3 543.3 514.2 548.3C557 553.3 600 556.7 642.8 560C685.7 563.3 728.3 566.7 771.2 568.3C814 570 857 570 878.5 570L900 570L900 601L878.5 601C857 601 814 601 771.2 601C728.3 601 685.7 601 642.8 601C600 601 557 601 514.2 601C471.3 601 428.7 601 385.8 601C343 601 300 601 257.2 601C214.3 601 171.7 601 128.8 601C86 601 43 601 21.5 601L0 601Z" fill="#c62368"></path></svg>