<svg id="visual" viewBox="0 0 900 600" width="900" height="600" xmlns="http://www.w3.org/2000/svg" xmlns:xlink="http://www.w3.org/1999/xlink" version="1.1"><rect x="0" y="0" width="900" height="600" fill="#fff"></rect><path d="M0 438L21.5 423.3C43 408.7 86 379.3 128.8 371.7C171.7 364 214.3 378 257.2 391.2C300 404.3 343 416.7 385.8 422.7C428.7 428.7 471.3 428.3 514.2 430.2C557 432 600 436 642.8 436.7C685.7 437.3 728.3 434.7 771.2 433.7C814 432.7 857 433.3 878.5 433.7L900 434L900 601L878.5 601C857 601 814 601 771.2 601C728.3 601 685.7 601 642.8 601C600 601 557 601 514.2 601C471.3 601 428.7 601 385.8 601C343 601 300 601 257.2 601C214.3 601 171.7 601 128.8 601C86 601 43 601 21.5 601L0 601Z" fill="#fa7268"></path><path d="M0 467L21.5 458C43 449 86 431 128.8 423.2C171.7 415.3 214.3 417.7 257.2 426.7C300 435.7 343 451.3 385.8 460.5C428.7 469.7 471.3 472.3 514.2 464C557 455.7 600 436.3 642.8 429.5C685.7 422.7 728.3 428.3 771.2 432.3C814 436.3 857 438.7 878.5 439.8L900 441L900 601L878.5 601C857 601 814 601 771.2 601C728.3 601 685.7 601 642.8 601C600 601 557 601 514.2 601C471.3 601 428.7 601 385.8 601C343 601 300 601 257.2 601C214.3 601 171.7 601 128.8 601C86 601 43 601 21.5 601L0 601Z" fill="#ef5f67"></path><path d="M0 508L21.5 498C43 488 86 468 128.8 458.8C171.7 449.7 214.3 451.3 257.2 451.2C300 451 343 449 385.8 454.5C428.7 460 471.3 473 514.2 477C557 481 600 476 642.8 472.3C685.7 468.7 728.3 466.3 771.2 469.3C814 472.3 857 480.7 878.5 484.8L900 489L900 601L878.5 601C857 601 814 601 771.2 601C728.3 601 685.7 601 642.8 601C600 601 557 601 514.2 601C471.3 601 428.7 601 385.8 601C343 601 300 601 257.2 601C214.3 601 171.7 601 128.8 601C86 601 43 601 21.5 601L0 601Z" fill="#e34c67"></path><path d="M0 496L21.5 497.7C43 499.3 86 502.7 128.8 504.2C171.7 505.7 214.3 505.3 257.2 503.5C300 501.7 343 498.3 385.8 498.3C428.7 498.3 471.3 501.7 514.2 504.3C557 507 600 509 642.8 510.5C685.7 512 728.3 513 771.2 509C814 505 857 496 878.5 491.5L900 487L900 601L878.5 601C857 601 814 601 771.2 601C728.3 601 685.7 601 642.8 601C600 601 557 601 514.2 601C471.3 601 428.7 601 385.8 601C343 601 300 601 257.2 601C214.3 601 171.7 601 128.8 601C86 601 43 601 21.5 601L0 601Z" fill="#d53867"></path><path d="M0 549L21.5 549.3C43 549.7 86 550.3 128.8 549.3C171.7 548.3 214.3 545.7 257.2 549.2C300 552.7 343 562.3 385.8 566.8C428.7 571.3 471.3 570.7 514.2 563.5C557 556.3 600 542.7 642.8 542.5C685.7 542.3 728.3 555.7 771.2 560.8C814 566 857 563 878.5 561.5L900 560L900 601L878.5 601C857 601 814 601 771.2 601C728.3 601 685.7 601 642.8 601C600 601 557 601 514.2 601C471.3 601 428.7 601 385.8 601C343 601 300 601 257.2 601C214.3 601 171.7 601 128.8 601C86 601 43 601 21.5 601L0 601Z" fill="#c62368"></path></svg>