<svg id="visual" viewBox="0 0 900 600" width="900" height="600" xmlns="http://www.w3.org/2000/svg" xmlns:xlink="http://www.w3.org/1999/xlink" version="1.1"><rect x="0" y="0" width="900" height="600" fill="#fff"></rect><path d="M0 273L21.5 270.7C43 268.3 86 263.7 128.8 280C171.7 296.3 214.3 333.7 257.2 345.8C300 358 343 345 385.8 342.3C428.7 339.7 471.3 347.3 514.2 349.8C557 352.3 600 349.7 642.8 340.7C685.7 331.7 728.3 316.3 771.2 303.5C814 290.7 857 280.3 878.5 275.2L900 270L900 601L878.5 601C857 601 814 601 771.2 601C728.3 601 685.7 601 642.8 601C600 601 557 601 514.2 601C471.3 601 428.7 601 385.8 601C343 601 300 601 257.2 601C214.3 601 171.7 601 128.8 601C86 601 43 601 21.5 601L0 601Z" fill="#ffffff"></path><path d="M0 318L21.5 329.7C43 341.3 86 364.7 128.8 378.5C171.7 392.3 214.3 396.7 257.2 386.5C300 376.3 343 351.7 385.8 341.2C428.7 330.7 471.3 334.3 514.2 331.7C557 329 600 320 642.8 331.2C685.7 342.3 728.3 373.7 771.2 375.7C814 377.7 857 350.3 878.5 336.7L900 323L900 601L878.5 601C857 601 814 601 771.2 601C728.3 601 685.7 601 642.8 601C600 601 557 601 514.2 601C471.3 601 428.7 601 385.8 601C343 601 300 601 257.2 601C214.3 601 171.7 601 128.8 601C86 601 43 601 21.5 601L0 601Z" fill="#d0c3ec"></path><path d="M0 444L21.5 438.2C43 432.3 86 420.7 128.8 417C171.7 413.3 214.3 417.7 257.2 411.8C300 406 343 390 385.8 389.3C428.7 388.7 471.3 403.3 514.2 404.8C557 406.3 600 394.7 642.8 402.3C685.7 410 728.3 437 771.2 449C814 461 857 458 878.5 456.5L900 455L900 601L878.5 601C857 601 814 601 771.2 601C728.3 601 685.7 601 642.8 601C600 601 557 601 514.2 601C471.3 601 428.7 601 385.8 601C343 601 300 601 257.2 601C214.3 601 171.7 601 128.8 601C86 601 43 601 21.5 601L0 601Z" fill="#9f89d8"></path><path d="M0 454L21.5 456.8C43 459.7 86 465.3 128.8 466.5C171.7 467.7 214.3 464.3 257.2 462.2C300 460 343 459 385.8 461.2C428.7 463.3 471.3 468.7 514.2 473.3C557 478 600 482 642.8 480C685.7 478 728.3 470 771.2 461.7C814 453.3 857 444.7 878.5 440.3L900 436L900 601L878.5 601C857 601 814 601 771.2 601C728.3 601 685.7 601 642.8 601C600 601 557 601 514.2 601C471.3 601 428.7 601 385.8 601C343 601 300 601 257.2 601C214.3 601 171.7 601 128.8 601C86 601 43 601 21.5 601L0 601Z" fill="#6952c3"></path><path d="M0 504L21.5 510C43 516 86 528 128.8 530.5C171.7 533 214.3 526 257.2 521.7C300 517.3 343 515.7 385.8 519.2C428.7 522.7 471.3 531.3 514.2 530.2C557 529 600 518 642.8 511C685.7 504 728.3 501 771.2 501.8C814 502.7 857 507.3 878.5 509.7L900 512L900 601L878.5 601C857 601 814 601 771.2 601C728.3 601 685.7 601 642.8 601C600 601 557 601 514.2 601C471.3 601 428.7 601 385.8 601C343 601 300 601 257.2 601C214.3 601 171.7 601 128.8 601C86 601 43 601 21.5 601L0 601Z" fill="#0e1dae"></path></svg>