<svg id="visual" viewBox="0 0 900 600" width="900" height="600" xmlns="http://www.w3.org/2000/svg" xmlns:xlink="http://www.w3.org/1999/xlink" version="1.1"><rect x="0" y="0" width="900" height="600" fill="#6689b2"></rect><path d="M263 0L266.7 20C270.3 40 277.7 80 280.8 120C284 160 283 200 284.8 240C286.7 280 291.3 320 287.2 360C283 400 270 440 260.5 480C251 520 245 560 242 580L239 600L0 600L0 580C0 560 0 520 0 480C0 440 0 400 0 360C0 320 0 280 0 240C0 200 0 160 0 120C0 80 0 40 0 20L0 0Z" fill="#6689b2"></path><path d="M251 0L235 20C219 40 187 80 182.7 120C178.3 160 201.7 200 217.8 240C234 280 243 320 241.7 360C240.3 400 228.7 440 229.7 480C230.7 520 244.3 560 251.2 580L258 600L0 600L0 580C0 560 0 520 0 480C0 440 0 400 0 360C0 320 0 280 0 240C0 200 0 160 0 120C0 80 0 40 0 20L0 0Z" fill="#35a0c5"></path><path d="M208 0L210 20C212 40 216 80 218.2 120C220.3 160 220.7 200 212.8 240C205 280 189 320 186.8 360C184.7 400 196.3 440 190.3 480C184.3 520 160.7 560 148.8 580L137 600L0 600L0 580C0 560 0 520 0 480C0 440 0 400 0 360C0 320 0 280 0 240C0 200 0 160 0 120C0 80 0 40 0 20L0 0Z" fill="#00b6c3"></path><path d="M139 0L134.3 20C129.7 40 120.3 80 114 120C107.7 160 104.3 200 109.7 240C115 280 129 320 137.5 360C146 400 149 440 149.2 480C149.3 520 146.7 560 145.3 580L144 600L0 600L0 580C0 560 0 520 0 480C0 440 0 400 0 360C0 320 0 280 0 240C0 200 0 160 0 120C0 80 0 40 0 20L0 0Z" fill="#00c8ac"></path><path d="M85 0L92.5 20C100 40 115 80 124.2 120C133.3 160 136.7 200 127.3 240C118 280 96 320 92 360C88 400 102 440 109.5 480C117 520 118 560 118.5 580L119 600L0 600L0 580C0 560 0 520 0 480C0 440 0 400 0 360C0 320 0 280 0 240C0 200 0 160 0 120C0 80 0 40 0 20L0 0Z" fill="#5dd681"></path><path d="M56 0L56.8 20C57.7 40 59.3 80 63.8 120C68.3 160 75.7 200 78.3 240C81 280 79 320 80.7 360C82.3 400 87.7 440 85.2 480C82.7 520 72.3 560 67.2 580L62 600L0 600L0 580C0 560 0 520 0 480C0 440 0 400 0 360C0 320 0 280 0 240C0 200 0 160 0 120C0 80 0 40 0 20L0 0Z" fill="#abdc49"></path><path d="M28 0L32.2 20C36.3 40 44.7 80 44.8 120C45 160 37 200 33.8 240C30.7 280 32.3 320 35.7 360C39 400 44 440 48 480C52 520 55 560 56.5 580L58 600L0 600L0 580C0 560 0 520 0 480C0 440 0 400 0 360C0 320 0 280 0 240C0 200 0 160 0 120C0 80 0 40 0 20L0 0Z" fill="#ffd700"></path></svg>